<?xml version="1.0" standalone="no"?>
<svg xmlns:xlink="http://www.w3.org/1999/xlink" id="wave" style="transform:rotate(0deg); transition: 0.3s" viewBox="0 0 1440 410" version="1.1" xmlns="http://www.w3.org/2000/svg"><defs><linearGradient id="sw-gradient-0" x1="0" x2="0" y1="1" y2="0"><stop stop-color="rgba(211, 208, 203, 1)" offset="0%"/><stop stop-color="rgba(161, 155, 145, 1)" offset="100%"/></linearGradient></defs><path style="transform:translate(0, 0px); opacity:1" fill="url(#sw-gradient-0)" d="M0,41L60,82C120,123,240,205,360,211.8C480,219,600,150,720,136.7C840,123,960,164,1080,191.3C1200,219,1320,232,1440,205C1560,178,1680,109,1800,109.3C1920,109,2040,178,2160,177.7C2280,178,2400,109,2520,109.3C2640,109,2760,178,2880,225.5C3000,273,3120,301,3240,266.5C3360,232,3480,137,3600,143.5C3720,150,3840,260,3960,252.8C4080,246,4200,123,4320,88.8C4440,55,4560,109,4680,123C4800,137,4920,109,5040,82C5160,55,5280,27,5400,75.2C5520,123,5640,246,5760,259.7C5880,273,6000,178,6120,157.2C6240,137,6360,191,6480,205C6600,219,6720,191,6840,170.8C6960,150,7080,137,7200,116.2C7320,96,7440,68,7560,102.5C7680,137,7800,232,7920,232.3C8040,232,8160,137,8280,82C8400,27,8520,14,8580,6.8L8640,0L8640,410L8580,410C8520,410,8400,410,8280,410C8160,410,8040,410,7920,410C7800,410,7680,410,7560,410C7440,410,7320,410,7200,410C7080,410,6960,410,6840,410C6720,410,6600,410,6480,410C6360,410,6240,410,6120,410C6000,410,5880,410,5760,410C5640,410,5520,410,5400,410C5280,410,5160,410,5040,410C4920,410,4800,410,4680,410C4560,410,4440,410,4320,410C4200,410,4080,410,3960,410C3840,410,3720,410,3600,410C3480,410,3360,410,3240,410C3120,410,3000,410,2880,410C2760,410,2640,410,2520,410C2400,410,2280,410,2160,410C2040,410,1920,410,1800,410C1680,410,1560,410,1440,410C1320,410,1200,410,1080,410C960,410,840,410,720,410C600,410,480,410,360,410C240,410,120,410,60,410L0,410Z"/><defs><linearGradient id="sw-gradient-1" x1="0" x2="0" y1="1" y2="0"><stop stop-color="rgba(211, 208, 203, 1)" offset="0%"/><stop stop-color="rgba(161, 155, 145, 1)" offset="100%"/></linearGradient></defs><path style="transform:translate(0, 50px); opacity:0.9" fill="url(#sw-gradient-1)" d="M0,205L60,191.3C120,178,240,150,360,157.2C480,164,600,205,720,198.2C840,191,960,137,1080,102.5C1200,68,1320,55,1440,75.2C1560,96,1680,150,1800,164C1920,178,2040,150,2160,116.2C2280,82,2400,41,2520,82C2640,123,2760,246,2880,273.3C3000,301,3120,232,3240,170.8C3360,109,3480,55,3600,27.3C3720,0,3840,0,3960,27.3C4080,55,4200,109,4320,157.2C4440,205,4560,246,4680,266.5C4800,287,4920,287,5040,246C5160,205,5280,123,5400,129.8C5520,137,5640,232,5760,225.5C5880,219,6000,109,6120,54.7C6240,0,6360,0,6480,54.7C6600,109,6720,219,6840,246C6960,273,7080,219,7200,164C7320,109,7440,55,7560,68.3C7680,82,7800,164,7920,205C8040,246,8160,246,8280,266.5C8400,287,8520,328,8580,348.5L8640,369L8640,410L8580,410C8520,410,8400,410,8280,410C8160,410,8040,410,7920,410C7800,410,7680,410,7560,410C7440,410,7320,410,7200,410C7080,410,6960,410,6840,410C6720,410,6600,410,6480,410C6360,410,6240,410,6120,410C6000,410,5880,410,5760,410C5640,410,5520,410,5400,410C5280,410,5160,410,5040,410C4920,410,4800,410,4680,410C4560,410,4440,410,4320,410C4200,410,4080,410,3960,410C3840,410,3720,410,3600,410C3480,410,3360,410,3240,410C3120,410,3000,410,2880,410C2760,410,2640,410,2520,410C2400,410,2280,410,2160,410C2040,410,1920,410,1800,410C1680,410,1560,410,1440,410C1320,410,1200,410,1080,410C960,410,840,410,720,410C600,410,480,410,360,410C240,410,120,410,60,410L0,410Z"/></svg>